<?xml version="1.0" encoding="utf-8"?>
<!-- Generator: Adobe Illustrator 16.0.0, SVG Export Plug-In . SVG Version: 6.00 Build 0)  -->
<!DOCTYPE svg PUBLIC "-//W3C//DTD SVG 1.1//EN" "http://www.w3.org/Graphics/SVG/1.1/DTD/svg11.dtd">
<svg version="1.1" id="Layer_1" xmlns="http://www.w3.org/2000/svg" xmlns:xlink="http://www.w3.org/1999/xlink" x="0px" y="0px"
	 width="269.547px" height="112.704px" viewBox="0 0 269.547 112.704" enable-background="new 0 0 269.547 112.704"
	 xml:space="preserve">
<g id="Layer_2">
	
		<linearGradient id="SVGID_1_" gradientUnits="userSpaceOnUse" x1="50.7734" y1="-23.1221" x2="50.7734" y2="83.5997" gradientTransform="matrix(1 0 0 -1 84 87.7041)">
		<stop  offset="0" style="stop-color:#F2F2F2"/>
		<stop  offset="1" style="stop-color:#CCCCCC"/>
	</linearGradient>
	<path fill="url(#SVGID_1_)" d="M269.059,103.366c-0.842-1.99-1.059-4.074-1.059-7.99V82.252c0-3.385,0.061-11.91-5.107-18.215
		C266.247,59.853,268,54.12,268,46.895v-6.683c0-16.723-8.895-25.595-25.777-25.595h-20.17c-1.058,0-2.051,0.276-2.914,0.757
		c-0.863-0.481-1.855-0.757-2.914-0.757h-41.312c-2.606,0-4.817,1.665-5.646,3.986c-0.836-2.353-3.078-3.986-5.651-3.986h-19.562
		c-2.949,0-5.459,2.157-5.926,5.068l-8.015,49.912c-1.089-1.111-2.604-1.979-4.283-1.979h-12.637c-3.313,0-6.193,3.059-6.193,6.373
		v12.15c0,1.249-0.061,1.916-0.162,2.217c-0.141,0.023-0.309,0.045-0.619,0.045c-0.31,0-0.672-0.021-0.814-0.045
		C105.304,88.057,105,87.39,105,86.141v-45.93c0-1.359,0.355-2.05,0.464-2.338c0.129-0.023,0.419-0.046,0.718-0.046
		c0.299,0,0.45,0.023,0.579,0.046c0.108,0.288,0.239,0.979,0.239,2.338v9.113c0,3.313,2.88,6.292,6.193,6.292h12.637
		c3.313,0,6.17-2.979,6.17-6.292v-8.262c0-17.147-9.777-27.385-26.012-27.385c-1.514,0-3.012,0.089-4.41,0.265
		C101.495,4.431,89.257,1.244,85.231,0.194C84.737,0.065,84.218,0,83.708,0c-4.939,0-8.641,2.583-11.32,5.763
		c-1.484-2.362-3.669-4.041-6.919-4.041c-0.785,0-1.562,0.154-2.289,0.453c-5.097,2.103-9.28,5.114-12.483,8.917
		c-2.049-0.341-4.292-0.476-6.764-0.476h-3.445c-1.361,0-3.248,0.117-5.816,0.431C28.725,5.036,24.56,2.528,20.606,2.528
		c-5.737,0-7.877,5.206-8.427,6.803C11.318,11.83,11,15.172,11,19.566v1.651c0,1.435,0.035,2.942,0.305,4.506L7.648,25.43
		c-0.162-0.014-0.35-0.02-0.512-0.02c-3.374,0-6.292,2.353-6.902,5.721C0.169,31.482,0,31.84,0,32.199v0.431
		c0,0.598,0.212,1.177,0.376,1.725c-0.165,0.551-0.19,1.13-0.19,1.721c0,1.005,0.39,1.946,0.753,2.789
		C0.854,39.288,1,39.745,1,40.238v0.431c0,3.313,2.526,6,5.84,6c3.025,0,7.321-0.442,13.251-1.348
		c2.858,1.89,5.644,3.304,8.42,4.236c-0.304,0.9-0.619,1.765-0.905,2.594c-2.404-1.752-4.898-2.869-7.495-3.375
		c-0.378-0.074-0.768-0.111-1.153-0.111c-10.659,0-12.313,15.187-12.822,20.177C6.116,69.045,6,69.249,6,69.452v2.152
		c0,3.291,1.133,8.693,8.157,21.491c-6.433,0.009-10.085,3.188-12.016,5.856C1.402,99.975,1,101.206,1,102.467v1.293
		c0,1.523,0.593,5.287,5.574,7.328c1.713,0.703,4.013,1.218,6.972,1.572c0.237,0.027,0.49,0.043,0.729,0.043
		c0.076,0,0.159-0.002,0.235-0.004c6.971-0.267,12.299-0.55,15.829-0.843c1.923-0.16,3.369-0.325,4.417-0.507
		c0.012-0.002,0.025-0.005,0.037-0.008c2.002,0.605,4.636,1.029,8.19,1.338c0.172,0.015,0.346,0.021,0.519,0.021
		c3.617,0,7.02-0.551,10.138-1.64c10.846,0.813,17.349,1.209,19.865,1.209c3.462,0,6.212-0.595,8.408-1.813
		c2.238-1.246,3.829-3.113,4.632-5.391c4.459,4.919,11.05,7.605,19.359,7.605c7.821,0,14.118-2.381,18.55-6.762
		c0.047,1.344,0.539,2.602,1.425,3.639c1.14,1.338,2.809,2.064,4.565,2.064h12.272c2.972,0,5.494-1.959,5.935-4.896l1.543-10.104
		h6.064l1.543,10.104c0.44,2.939,2.963,4.896,5.934,4.896h13.488c1.756,0,3.424-0.729,4.564-2.062
		c0.624-0.731,1.047-1.616,1.265-2.531c0.625,2.646,2.997,4.596,5.833,4.596h13.365c3.314,0,5.749-2.602,5.749-5.914V38.617h8
		v67.086c0,3.312,2.739,5.914,6.053,5.914h13.365c3.313,0,5.582-2.602,5.582-5.914V77.172c1,0.086,0.985,0.193,0.987,0.195
		c-0.004,0,1.013,0.875,1.013,4.521v13.365c0,7.41,0.458,9.479,1.38,12.242l-0.018,0.062c0.816,2.45,3.056,4.06,5.638,4.06h13.608
		c2.012,0,3.852-0.966,4.963-2.644C269.684,107.297,269.843,105.217,269.059,103.366z M241,38.617h0.859
		c0.221,0,0.561,0.103,0.688,0.117c0.117,0.389,0.453,1.302,0.453,2.814v8.384c0,1.826-0.677,2.59-0.779,2.797
		c-0.109,0.042-0.221,0.119-1.221,0.162V38.617z M80,58.01c0-0.684-0.457-1.339-0.705-1.939c-1.623-3.931-3.868-5.934-5.957-6.925
		c1.079-1.454,1.925-2.626,2.598-3.58c1.894,0.28,2.596,0.313,3.109,0.313c0.322,0,0.955-0.033,0.955-0.082V58.01z M85.384,19.358
		c0.722,0.387,1.398,0.719,2.042,1.007c-0.988,0.967-1.885,2.032-2.685,3.192C84.928,21.671,85.163,20.313,85.384,19.358z
		 M73.935,92.618c-0.037,0-0.074,0-0.111,0c2.408-4,4.176-8.613,6.176-12.641v5.312c0,3.285,0.347,6.289,1.035,9.043
		C78.918,93.228,76.527,92.618,73.935,92.618z M172.572,38.207c0.734,0.321,1.486,0.41,2.34,0.41H183v64.502L172.572,38.207z"/>
</g>
<g id="Layer_2_copy_2">
	<g>
		<path fill="#FFFFFF" d="M166.564,19.001c-0.312-1.94-1.984-3.384-3.951-3.384h-19.562c-1.965,0-3.554,1.444-3.864,3.384
			L129,83.219V72.991c0-2.209-1.961-4.375-4.17-4.375h-12.637c-2.209,0-4.193,2.166-4.193,4.375V85.14c0,4.263-1.365,4.263-3,4.263
			s-3,0-3-4.263V39.211c0-4.384,1.496-4.384,3-4.384s3,0,3,4.384v9.113c0,2.209,1.984,4.292,4.193,4.292h12.637
			c2.209,0,4.17-2.083,4.17-4.292v-8.262c0-16.132-8.806-25.385-24.012-25.385c-2.544,0-4.932,0.282-7.103,0.789
			c0.239-0.452,0.424-0.929,0.556-1.457c0.08-0.317,0.109-0.643,0.109-0.97c0-8.043-11.17-10.953-14.84-11.91
			C83.382,1.043,83.04,1,82.699,1c-4.582,0-8.5,2.565-11.668,7.632c-1.136-3.251-3.086-5.909-6.565-5.909
			c-0.523,0-1.042,0.103-1.525,0.302c-5.189,2.14-9.361,5.269-12.441,9.256c-2.245-0.463-4.778-0.665-7.567-0.665h-3.445
			c-1.425,0-3.58,0.155-6.551,0.54c-5.833-6.021-9.763-8.627-13.231-8.627C11.9,3.529,12,14.843,12,18.566v1.651
			c0,1.74,0.118,3.606,0.549,5.563c-0.132,0.361-0.293,0.729-0.385,1.104L6.46,26.422c-0.108-0.009-0.229-0.013-0.337-0.013
			c-2.428,0-4.487,1.638-4.928,4.077C1.152,30.721,1,30.96,1,31.199v0.431c0,0.615,0.264,1.2,0.514,1.723
			c-0.253,0.53-0.328,1.117-0.328,1.722c0,0.958,0.449,1.834,0.903,2.567C1.91,38.105,2,38.633,2,39.238v0.431
			c0,2.209,1.631,4,3.84,4c3.053,0,7.498-0.473,13.719-1.443c3.602,2.47,7.089,4.141,10.507,5c-0.902,2.713-1.756,5.146-2.518,7.288
			c-2.835-2.603-5.76-4.177-8.819-4.773c-0.252-0.049-0.513-0.074-0.77-0.074c-8.853,0-10.319,13.354-10.832,18.38
			C7.113,68.18,7,68.316,7,68.452v2.152c0,3.062,1.175,8.812,9.723,23.758c-0.791-0.061-1.785-0.142-3.163-0.254
			c-0.107-0.009-0.189-0.013-0.297-0.013c-4.437,0-8.081,1.739-10.461,5.028C2.308,99.806,2,100.625,2,101.467v1.293
			c0,5.631,7.554,6.529,10.756,6.914c0.158,0.02,0.345,0.029,0.504,0.029c0.051,0,0.115-0.002,0.166-0.004
			c6.941-0.265,12.243-0.546,15.743-0.836c1.864-0.154,3.254-0.312,4.244-0.484c0.168-0.028,0.332-0.062,0.488-0.096
			c1.879,0.639,4.507,1.079,8.253,1.404c0.115,0.01,0.231,0.016,0.346,0.016c3.542,0,6.855-0.561,9.865-1.666
			c11.048,0.83,17.641,1.234,20.139,1.234c4.03,0,10.896-1.018,11.588-7.83c0.107-1.05-0.206-2.1-0.87-2.92
			c-2.571-3.178-6.128-4.857-10.288-4.857c-0.097,0-0.195,0.002-0.292,0.01l-3.437,0.252c8.786-15.037,9.882-20.979,9.882-24.184
			c0-0.104-0.004-0.209-0.012-0.312c-0.421-5.376-1.52-19.419-10.084-20.166c2.175-2.881,3.839-5.163,5.009-6.868
			c2.578,0.414,3.495,0.481,4.042,0.481c1.171,0,1.957-0.511,2.957-1.313V84.29c0,16.133,8.709,25.385,23.915,25.385
			c10.87,0,18.397-4.75,21.822-13.34l-1.241,7.735c-0.185,1.156,0.145,2.293,0.905,3.185c0.76,0.892,1.871,1.361,3.042,1.361h12.272
			c1.979,0,3.663-1.234,3.956-3.193l1.799-11.807h9.512l1.799,11.807c0.293,1.959,1.976,3.193,3.955,3.193h13.488
			c1.17,0,2.283-0.471,3.043-1.361c0.76-0.892,1.09-2.057,0.905-3.213L166.564,19.001z M81.088,25.981
			c0.284-0.504,0.461-1.077,0.503-1.689c0.392-5.778,1.245-8.059,1.677-8.869c0.066,0.035,0.145,0.08,0.236,0.138
			c0.034,0.021,0.067,0.042,0.102,0.062c2.848,1.681,5.03,2.634,6.845,2.981c-3.766,2.55-6.47,6.305-8.001,11.129
			c-0.043-0.604-0.277-2.043-1.512-3.16C81.002,26.304,81.052,26.114,81.088,25.981z M153.961,73.618h-3.593l1.796-12
			L153.961,73.618z"/>
		<path fill="#FFFFFF" d="M266.217,103.144c-0.977-2.31-1.217-4.572-1.217-8.769V81.252c0-5.321-0.672-9.565-2.207-12.974
			c-0.912-2.026-2.089-3.772-3.564-5.231c3.819-3.912,5.771-9.653,5.771-17.152v-6.683c0-15.635-7.98-23.595-23.777-23.595h-20.17
			c-1.152,0-2.184,0.495-2.914,1.275c-0.729-0.78-1.761-1.275-2.914-1.275h-41.312c-2.209,0-3.913,1.823-3.913,4.032V31.8
			c0,2.209,1.704,3.817,3.913,3.817H184v69.086c0,2.209,1.677,3.914,3.886,3.914h13.365c2.209,0,3.749-1.705,3.749-3.914V35.617
			h10.225c0.664,0,1.775,0.007,1.775-0.278v69.365c0,2.209,1.844,3.914,4.053,3.914h13.365c2.209,0,3.582-1.705,3.582-3.914V73.618
			h1.036c2.86,0,4.964,0.457,4.964,7.271v13.364c0,7.115,0.393,8.961,1.277,11.608l-0.02,0.063c0.545,1.633,2.02,2.691,3.741,2.691
			h13.608c1.341,0,2.556-0.63,3.295-1.748C266.646,105.75,266.739,104.379,266.217,103.144z M244,40.548v8.384
			c0,4.759-1.79,4.685-4.357,4.685H238v-18h2.859C242.547,35.617,244,35.8,244,40.548z"/>
	</g>
</g>
<g id="Layer_2_copy" display="none">
	<g display="inline">
		<g>
			<g>
				
					<linearGradient id="SVGID_2_" gradientUnits="userSpaceOnUse" x1="-51.0264" y1="75.9478" x2="98.2276" y2="-28.5299" gradientTransform="matrix(1 0 0 -1 84 87.7041)">
					<stop  offset="0" style="stop-color:#14192E"/>
					<stop  offset="0.6118" style="stop-color:#435399"/>
					<stop  offset="0.8915" style="stop-color:#141972"/>
				</linearGradient>
				<path fill="url(#SVGID_2_)" d="M105,18.677c-13.123,0-20,7.776-20,21.385V84.29c0,13.609,6.877,21.385,20,21.385
					s20-7.775,20-21.385V72.618h-13v12.523c0,6.074-2.747,8.263-7,8.263c-4.252,0-7-2.188-7-8.263v-45.93
					c0-6.075,2.748-8.384,7-8.384c4.253,0,7,2.309,7,8.384v9.405h13v-8.555C125,26.454,118.123,18.677,105,18.677z"/>
				
					<linearGradient id="SVGID_3_" gradientUnits="userSpaceOnUse" x1="-37.5049" y1="95.2603" x2="111.7471" y2="-9.2159" gradientTransform="matrix(1 0 0 -1 84 87.7041)">
					<stop  offset="0" style="stop-color:#14192E"/>
					<stop  offset="0.6118" style="stop-color:#435399"/>
					<stop  offset="0.8915" style="stop-color:#141972"/>
				</linearGradient>
				<path fill="url(#SVGID_3_)" d="M143.052,19.617l-13.609,85h12.272l2.309-15h16.404l2.309,15h13.486l-13.607-85H143.052z
					 M145.725,77.618l6.44-43.014l6.438,43.014H145.725z"/>
				
					<linearGradient id="SVGID_4_" gradientUnits="userSpaceOnUse" x1="-19.2651" y1="121.3228" x2="129.9888" y2="16.8452" gradientTransform="matrix(1 0 0 -1 84 87.7041)">
					<stop  offset="0" style="stop-color:#14192E"/>
					<stop  offset="0.6118" style="stop-color:#435399"/>
					<stop  offset="0.8915" style="stop-color:#141972"/>
				</linearGradient>
				<polygon fill="url(#SVGID_4_)" points="174,31.617 188,31.617 188,104.618 201,104.618 201,31.617 215,31.617 215,19.617 
					174,19.617 				"/>
				
					<linearGradient id="SVGID_5_" gradientUnits="userSpaceOnUse" x1="-8.1294" y1="137.231" x2="141.1245" y2="32.7534" gradientTransform="matrix(1 0 0 -1 84 87.7041)">
					<stop  offset="0" style="stop-color:#14192E"/>
					<stop  offset="0.6118" style="stop-color:#435399"/>
					<stop  offset="0.8915" style="stop-color:#141972"/>
				</linearGradient>
				<path fill="url(#SVGID_5_)" d="M261,94.375V81.252c0-8.871-2.126-15.311-8.811-18.104c5.955-2.794,8.811-8.505,8.811-17.253
					v-6.683c0-13.123-5.925-19.595-19.777-19.595H221v85h13v-35h5.036c6.075,0,8.964,3.373,8.964,11.271v13.364
					c0,6.927,0.27,8.363,1,10.363h13.607C261.271,101.618,261,98.506,261,94.375z M248,48.932c0,6.804-3.375,8.686-8.357,8.686H234
					v-26h6.859c4.738,0,7.141,2.856,7.141,8.931V48.932z"/>
				
					<linearGradient id="SVGID_6_" gradientUnits="userSpaceOnUse" x1="-66.6094" y1="53.686" x2="82.6452" y2="-50.7921" gradientTransform="matrix(1 0 0 -1 84 87.7041)">
					<stop  offset="0" style="stop-color:#14192E"/>
					<stop  offset="0.6118" style="stop-color:#435399"/>
					<stop  offset="0.8915" style="stop-color:#141972"/>
				</linearGradient>
				<path fill="url(#SVGID_6_)" d="M91.956,14.762c1.436,0,2.297-0.574,2.584-1.723c0-3.302-3.948-5.981-11.843-8.039
					c-3.589,0-6.7,2.356-9.331,7.427c-0.861,7.608-1.843,13.189-2.943,17.189h-3.374c0,0-0.144-1.66-0.431-2.762
					c0.813-1.052,1.507-3.545,2.082-8.139c-0.287,0-0.431-0.1-0.431-0.1H68.7c-0.718-8-2.13-11.653-4.235-11.653
					c-5.455,2.25-9.546,5.536-12.274,10.033c-2.489-0.861-5.575-1.38-9.259-1.38h-3.445c-1.579,0-4.487,0.222-8.487,0.796V15.98
					c-5-5.646-8.996-8.47-11.34-8.47c-2.537,0-3.66,3.686-3.66,11.054v1.651c0,1.819,0.287,3.804,0.861,5.958
					C16.287,27.179,16,28.304,16,29.548v1.651l-9.914-0.79c-0.48,0-1.086,0.264-1.086,0.79v0.431c6,0.574,9.505,0.861,10.845,0.861
					c0.287,0,0.155,0.431,1.155,1.292v0.834H6.541l-1.292,0.536c0,0.527,0.287,0.464,0.861,0.464h5.455L15.8,35.31
					c0,0.287,0.144,0.584,0.431,0.584c0-0.287,0.144-0.277,0.431-0.277h0.861c0.861,0,1.477,0.727,1.477,1.109v0.431
					c-9,0.671-13,1.364-13,2.082v0.431c3,0,7.831-0.549,14.626-1.651c5.312,3.924,10.184,5.886,14.778,5.886
					c-2.632,8.136-4.802,14.212-6.428,18.23c-3.637-4.928-7.421-7.751-11.105-8.469c-3.493,0-5.87,4.928-6.87,14.786v2.153
					c0,4.547,4.17,13.565,12.306,27.06l-4.112,0.861c-0.431,0-2.446-0.145-5.987-0.431C10.049,98.095,8,99.22,6,101.467v1.293
					c0,1.39,2.447,2.369,7.233,2.943c13.828-0.527,20.771-1.102,20.771-1.724c1.244,0.767,4.081,1.341,8.484,1.724
					c3.397,0,6.49-0.574,9.266-1.724c11.388,0.86,18.307,1.292,20.747,1.292c4.784,0,7.323-1.41,7.61-4.234
					c-1.819-2.248-4.21-3.373-7.177-3.373l-5.885,0.431c-2.824-0.239-4.234-0.669-4.234-1.292
					C70.998,83.5,75.089,74.48,75.089,69.743c-0.861-11.005-3.135-16.509-6.819-16.509c-0.527,0-0.79,0.144-0.79,0.431
					c-3.445,0-6.844,2.968-10.192,8.9c-0.479,0-1.03-0.861-1.651-2.584c9.378-11.915,14.842-19.236,16.421-21.964
					C75.36,38.592,77,38.879,78,38.879v-1.292l-5.081-0.875c0.765-1.387,1.354-2.095,1.738-2.095H79v-1h-3.912
					c0-2,0.912-3.208,2.912-3.208v-0.431c0-0.574-0.487-0.861-1.922-0.861c0.669-3.397,1.215-4.946,1.408-4.946
					c0.574-8.47,2.387-12.555,5.211-12.555h0.431c0.765,0,1.603,0.137,2.512,0.711C88.558,14.05,90.664,14.762,91.956,14.762z
					 M66,37.587c-2,3.589-6.917,8.949-13.472,16.078c0-0.574-1.078-3.597-3.327-9.532c6.173-1.387,11.147-3.517,14.833-6.517H66
					V37.587z M68,35.075c0,0.527-0.425,0.542-0.951,0.542h-2.153c0.287,0,0.431-1,0.431-1H68V35.075z M68.27,33.617H67v-1.126
					c0-0.669,0.455-0.874,2.131-0.874h0.431C69.37,32.617,68.939,33.617,68.27,33.617z"/>
			</g>
		</g>
		<defs>
			<filter id="Adobe_OpacityMaskFilter" filterUnits="userSpaceOnUse" x="5" y="5" width="257.607" height="100.704">
				<feColorMatrix  type="matrix" values="1 0 0 0 0  0 1 0 0 0  0 0 1 0 0  0 0 0 1 0"/>
			</filter>
		</defs>
		<mask maskUnits="userSpaceOnUse" x="5" y="5" width="257.607" height="100.704" id="SVGID_7_">
			<g filter="url(#Adobe_OpacityMaskFilter)">
				
					<image overflow="visible" enable-background="new    " width="262" height="106" xlink:href="EB1412BCBD8EC724.jpeg"  transform="matrix(1 0 0 1 3 2.6172)">
				</image>
			</g>
		</mask>
		<g opacity="0.32" mask="url(#SVGID_7_)">
			<g>
				<path fill="#5470D6" d="M105,18.677c-13.123,0-20,7.776-20,21.385V84.29c0,13.609,6.877,21.385,20,21.385s20-7.775,20-21.385
					V72.618h-13v12.523c0,6.074-2.747,8.263-7,8.263c-4.252,0-7-2.188-7-8.263v-45.93c0-6.075,2.748-8.384,7-8.384
					c4.253,0,7,2.309,7,8.384v9.405h13v-8.555C125,26.454,118.123,18.677,105,18.677z"/>
				<path fill="#5470D6" d="M143.052,19.617l-13.609,85h12.272l2.309-15h16.404l2.309,15h13.486l-13.607-85H143.052z
					 M145.725,77.618l6.44-43.014l6.438,43.014H145.725z"/>
				<polygon fill="#5470D6" points="174,31.617 188,31.617 188,104.618 201,104.618 201,31.617 215,31.617 215,19.617 174,19.617 
									"/>
				<path fill="#5470D6" d="M261,94.375V81.252c0-8.871-2.126-15.311-8.811-18.104c5.955-2.794,8.811-8.505,8.811-17.253v-6.683
					c0-13.123-5.925-19.595-19.777-19.595H221v85h13v-35h5.036c6.075,0,8.964,3.373,8.964,11.271v13.364
					c0,6.927,0.27,8.363,1,10.363h13.607C261.271,101.618,261,98.506,261,94.375z M248,48.932c0,6.804-3.375,8.686-8.357,8.686H234
					v-26h6.859c4.738,0,7.141,2.856,7.141,8.931V48.932z"/>
				<path fill="#5470D6" d="M91.956,14.762c1.436,0,2.297-0.574,2.584-1.723c0-3.302-3.948-5.981-11.843-8.039
					c-3.589,0-6.7,2.356-9.331,7.427c-0.861,7.608-1.843,13.189-2.943,17.189h-3.374c0,0-0.144-1.66-0.431-2.762
					c0.813-1.052,1.507-3.545,2.082-8.139c-0.287,0-0.431-0.1-0.431-0.1H68.7c-0.718-8-2.13-11.653-4.235-11.653
					c-5.455,2.25-9.546,5.536-12.274,10.033c-2.489-0.861-5.575-1.38-9.259-1.38h-3.445c-1.579,0-4.487,0.222-8.487,0.796V15.98
					c-5-5.646-8.996-8.47-11.34-8.47c-2.537,0-3.66,3.686-3.66,11.054v1.651c0,1.819,0.287,3.804,0.861,5.958
					C16.287,27.179,16,28.304,16,29.548v1.651l-9.914-0.79c-0.48,0-1.086,0.264-1.086,0.79v0.431c6,0.574,9.505,0.861,10.845,0.861
					c0.287,0,0.155,0.431,1.155,1.292v0.834H6.541l-1.292,0.536c0,0.527,0.287,0.464,0.861,0.464h5.455L15.8,35.31
					c0,0.287,0.144,0.584,0.431,0.584c0-0.287,0.144-0.277,0.431-0.277h0.861c0.861,0,1.477,0.727,1.477,1.109v0.431
					c-9,0.671-13,1.364-13,2.082v0.431c3,0,7.831-0.549,14.626-1.651c5.312,3.924,10.184,5.886,14.778,5.886
					c-2.632,8.136-4.802,14.212-6.428,18.23c-3.637-4.928-7.421-7.751-11.105-8.469c-3.493,0-5.87,4.928-6.87,14.786v2.153
					c0,4.547,4.17,13.565,12.306,27.06l-4.112,0.861c-0.431,0-2.446-0.145-5.987-0.431C10.049,98.095,8,99.22,6,101.467v1.293
					c0,1.39,2.447,2.369,7.233,2.943c13.828-0.527,20.771-1.102,20.771-1.724c1.244,0.767,4.081,1.341,8.484,1.724
					c3.397,0,6.49-0.574,9.266-1.724c11.388,0.86,18.307,1.292,20.747,1.292c4.784,0,7.323-1.41,7.61-4.234
					c-1.819-2.248-4.21-3.373-7.177-3.373l-5.885,0.431c-2.824-0.239-4.234-0.669-4.234-1.292
					C70.998,83.5,75.089,74.48,75.089,69.743c-0.861-11.005-3.135-16.509-6.819-16.509c-0.527,0-0.79,0.144-0.79,0.431
					c-3.445,0-6.844,2.968-10.192,8.9c-0.479,0-1.03-0.861-1.651-2.584c9.378-11.915,14.842-19.236,16.421-21.964
					C75.36,38.592,77,38.879,78,38.879v-1.292l-5.081-0.875c0.765-1.387,1.354-2.095,1.738-2.095H79v-1h-3.912
					c0-2,0.912-3.208,2.912-3.208v-0.431c0-0.574-0.487-0.861-1.922-0.861c0.669-3.397,1.215-4.946,1.408-4.946
					c0.574-8.47,2.387-12.555,5.211-12.555h0.431c0.765,0,1.603,0.137,2.512,0.711C88.558,14.05,90.664,14.762,91.956,14.762z
					 M66,37.587c-2,3.589-6.917,8.949-13.472,16.078c0-0.574-1.078-3.597-3.327-9.532c6.173-1.387,11.147-3.517,14.833-6.517H66
					V37.587z M68,35.075c0,0.527-0.425,0.542-0.951,0.542h-2.153c0.287,0,0.431-1,0.431-1H68V35.075z M68.27,33.617H67v-1.126
					c0-0.669,0.455-0.874,2.131-0.874h0.431C69.37,32.617,68.939,33.617,68.27,33.617z"/>
			</g>
		</g>
	</g>
</g>
<g id="Layer_2_copy_3">
	<path fill="#005FDE" d="M105,18.677c-13.123,0-20,7.776-20,21.385V84.29c0,13.609,6.877,21.385,20,21.385s20-7.775,20-21.385
		V72.618h-13v12.523c0,6.074-2.747,8.263-7,8.263c-4.252,0-7-2.188-7-8.263v-45.93c0-6.075,2.748-8.384,7-8.384
		c4.253,0,7,2.309,7,8.384v9.405h13v-8.555C125,26.454,118.123,18.677,105,18.677z"/>
	<path fill="#005FDE" d="M143.052,19.617l-13.609,85h12.272l2.309-15h16.404l2.309,15h13.486l-13.607-85H143.052z M145.725,77.618
		l6.44-43.014l6.438,43.014H145.725z"/>
	<polygon fill="#005FDE" points="174,31.617 188,31.617 188,104.618 201,104.618 201,31.617 215,31.617 215,19.617 174,19.617 	"/>
	<path fill="#FF0083" d="M261,94.375V81.252c0-8.871-2.126-15.311-8.811-18.104c5.955-2.794,8.811-8.505,8.811-17.253v-6.683
		c0-13.123-5.925-19.595-19.777-19.595H221v85h13v-35h5.036c6.075,0,8.964,3.373,8.964,11.271v13.364c0,6.927,0.27,8.363,1,10.363
		h13.607C261.271,101.618,261,98.506,261,94.375z M248,48.932c0,6.804-3.375,8.686-8.357,8.686H234v-26h6.859
		c4.738,0,7.141,2.856,7.141,8.931V48.932z"/>
	
		<linearGradient id="SVGID_8_" gradientUnits="userSpaceOnUse" x1="-66.6094" y1="53.686" x2="82.6452" y2="-50.7921" gradientTransform="matrix(1 0 0 -1 84 87.7041)">
		<stop  offset="0" style="stop-color:#14192E"/>
		<stop  offset="0.6118" style="stop-color:#435399"/>
		<stop  offset="0.8915" style="stop-color:#141972"/>
	</linearGradient>
	<path fill="url(#SVGID_8_)" d="M91.956,14.762c1.436,0,2.297-0.574,2.584-1.723c0-3.302-3.948-5.981-11.843-8.039
		c-3.589,0-6.7,2.356-9.331,7.427c-0.861,7.608-1.843,13.189-2.943,17.189h-3.374c0,0-0.144-1.66-0.431-2.762
		c0.813-1.052,1.507-3.545,2.082-8.139c-0.287,0-0.431-0.1-0.431-0.1H68.7c-0.718-8-2.13-11.653-4.235-11.653
		c-5.455,2.25-9.546,5.536-12.274,10.033c-2.489-0.861-5.575-1.38-9.259-1.38h-3.445c-1.579,0-4.487,0.222-8.487,0.796V15.98
		c-5-5.646-8.996-8.47-11.34-8.47c-2.537,0-3.66,3.686-3.66,11.054v1.651c0,1.819,0.287,3.804,0.861,5.958
		C16.287,27.179,16,28.304,16,29.548v1.651l-9.914-0.79c-0.48,0-1.086,0.264-1.086,0.79v0.431c6,0.574,9.505,0.861,10.845,0.861
		c0.287,0,0.155,0.431,1.155,1.292v0.834H6.541l-1.292,0.536c0,0.527,0.287,0.464,0.861,0.464h5.455L15.8,35.31
		c0,0.287,0.144,0.584,0.431,0.584c0-0.287,0.144-0.277,0.431-0.277h0.861c0.861,0,1.477,0.727,1.477,1.109v0.431
		c-9,0.671-13,1.364-13,2.082v0.431c3,0,7.831-0.549,14.626-1.651c5.312,3.924,10.184,5.886,14.778,5.886
		c-2.632,8.136-4.802,14.212-6.428,18.23c-3.637-4.928-7.421-7.751-11.105-8.469c-3.493,0-5.87,4.928-6.87,14.786v2.153
		c0,4.547,4.17,13.565,12.306,27.06l-4.112,0.861c-0.431,0-2.446-0.145-5.987-0.431C10.049,98.095,8,99.22,6,101.467v1.293
		c0,1.39,2.447,2.369,7.233,2.943c13.828-0.527,20.771-1.102,20.771-1.724c1.244,0.767,4.081,1.341,8.484,1.724
		c3.397,0,6.49-0.574,9.266-1.724c11.388,0.86,18.307,1.292,20.747,1.292c4.784,0,7.323-1.41,7.61-4.234
		c-1.819-2.248-4.21-3.373-7.177-3.373l-5.885,0.431c-2.824-0.239-4.234-0.669-4.234-1.292C70.998,83.5,75.089,74.48,75.089,69.743
		c-0.861-11.005-3.135-16.509-6.819-16.509c-0.527,0-0.79,0.144-0.79,0.431c-3.445,0-6.844,2.968-10.192,8.9
		c-0.479,0-1.03-0.861-1.651-2.584c9.378-11.915,14.842-19.236,16.421-21.964C75.36,38.592,77,38.879,78,38.879v-1.292l-5.081-0.875
		c0.765-1.387,1.354-2.095,1.738-2.095H79v-1h-3.912c0-2,0.912-3.208,2.912-3.208v-0.431c0-0.574-0.487-0.861-1.922-0.861
		c0.669-3.397,1.215-4.946,1.408-4.946c0.574-8.47,2.387-12.555,5.211-12.555h0.431c0.765,0,1.603,0.137,2.512,0.711
		C88.558,14.05,90.664,14.762,91.956,14.762z M66,37.587c-2,3.589-6.917,8.949-13.472,16.078c0-0.574-1.078-3.597-3.327-9.532
		c6.173-1.387,11.147-3.517,14.833-6.517H66V37.587z M68,35.075c0,0.527-0.425,0.542-0.951,0.542h-2.153c0.287,0,0.431-1,0.431-1H68
		V35.075z M68.27,33.617H67v-1.126c0-0.669,0.455-0.874,2.131-0.874h0.431C69.37,32.617,68.939,33.617,68.27,33.617z"/>
</g>
</svg>
